name C:\Users\tom_v\My Drive\PostDoc\MusculoskeletalSpecialization\ResultsSprinting\Case_1\motion.mot
datacolumns 32
datarows 8
range 0.12449617 0.15935509
endheader 
time	pelvis_tilt	pelvis_list	pelvis_rotation	pelvis_tx	pelvis_ty	pelvis_tz	hip_flexion_r	hip_adduction_r	hip_rotation_r	knee_angle_r	ankle_angle_r	subtalar_angle_r	mtp_angle_r	hip_flexion_l	hip_adduction_l	hip_rotation_l	knee_angle_l	ankle_angle_l	subtalar_angle_l	mtp_angle_l	lumbar_extension	lumbar_bending	lumbar_rotation	arm_flex_r	arm_add_r	arm_rot_r	elbow_flex_r	arm_flex_l	arm_add_l	arm_rot_l	elbow_flex_l	
          0.12449617	        -10.97073908	         10.64121419	        -18.13625467	          1.00456821	          0.93324143	          0.02960848	          0.73076111	         -9.70116664	          4.19860488	        -38.58021691	        -18.63172807	        -14.20448625	         -1.96296184	         57.54175371	         -6.19478255	         -9.48414874	        -54.88903587	         15.45178330	         -2.86584336	         -1.90297431	         -2.78814835	        -10.39385742	         18.30041163	         49.99480772	          4.23341414	          5.64419984	        112.80105955	        -69.98991828	        -41.08659431	        -10.80859209	          0.03594010	
          0.12947601	        -10.01524829	         10.36856257	        -18.99887848	          1.04371370	          0.93653950	          0.03072729	         -0.39263991	        -10.22602400	          5.00747547	        -39.37553825	        -18.45611134	        -10.20700167	          0.39532429	         56.77877324	         -6.71719042	         -9.72301897	        -52.14685429	         15.98936780	         -4.01243296	         -1.86624911	         -4.01391784	        -10.69817701	         18.99484556	         49.97381698	          3.10917506	          7.24017559	        110.24922544	        -69.90726668	        -40.13460764	         -7.06706144	          0.14311364	
          0.13445586	         -8.96200793	          9.98013755	        -19.86777238	          1.08289280	          0.94000339	          0.03179595	         -1.59049016	        -10.59985557	          5.90851297	        -40.05332560	        -18.45106845	         -8.14580529	          2.66960289	         55.67879032	         -7.22194808	         -9.91115308	        -49.21531440	         16.34530774	         -5.06005070	         -1.84510441	         -5.35634274	        -10.97923708	         19.53831670	         49.94920181	          1.62496609	          7.96189122	        106.43867610	        -69.80075411	        -38.61726468	         -3.75220423	          0.15971555	
          0.13943571	         -7.84068103	          9.47227246	        -20.72407764	          1.12214617	          0.94357471	          0.03277471	         -2.82316762	        -10.83186020	          6.83184466	        -40.62224890	        -19.13469410	         -7.87286070	          4.35326674	         54.29476507	         -7.69248311	         -9.99782063	        -46.17816004	         16.53204138	         -6.10716201	         -1.82035807	         -6.78063092	        -11.23388568	         19.94052303	         49.93794154	         -0.24264690	          8.04236180	        101.53000921	        -69.78772331	        -36.51730071	         -1.26748077	          0.10980357	
          0.14441555	         -6.69569701	          8.86473537	        -21.55413476	          1.16149655	          0.94714151	          0.03354318	         -4.01991837	        -10.97687961	          7.73488624	        -41.18460082	        -19.56120038	         -7.87870495	          4.98316656	         52.70897494	         -8.10162598	         -9.93519526	        -43.12094294	         16.59701393	         -7.22696743	         -1.84258571	         -8.24211441	        -11.46413162	         20.24017679	         49.95224458	         -2.73955965	          8.19000743	         96.03099157	        -69.91952858	        -33.87172890	          0.81485179	          0.10835865	
          0.14939540	         -5.62852041	          8.13749049	        -22.34627701	          1.20092259	          0.95055207	          0.03394388	         -5.05501417	        -11.01379394	          8.59195532	        -41.81263442	        -19.37698155	         -7.24185275	          5.23171105	         51.06618396	         -8.48539118	         -9.64961134	        -40.14130182	         16.57743153	         -8.39437461	         -1.89412991	         -9.66007698	        -11.58756105	         20.52286396	         49.99397882	         -6.20425309	          9.30437823	         90.51881691	        -69.99511063	        -30.76838918	          3.46732131	          0.01777346	
          0.15437525	         -4.74013002	          7.29957499	        -23.05428802	          1.24045054	          0.95364323	          0.03385203	         -5.82221333	        -10.92526610	          9.31725100	        -42.50054727	        -19.05302981	         -6.04925638	          5.64954077	         49.50761467	         -8.84852449	         -9.09458621	        -37.30375729	         16.51729486	         -9.53742584	         -2.18567900	        -10.94607758	        -11.54267147	         20.85437900	         49.96638865	        -10.71827029	         11.88552825	         85.60843038	        -69.97295991	        -27.42960694	          7.21599661	          0.04461700	
          0.15935509	         -4.04533096	          6.44363752	        -23.63701836	          1.28016577	          0.95634393	          0.03324853	         -6.29521796	        -10.79913588	          9.80296122	        -43.22689584	        -18.83484836	         -4.59273348	          6.04808298	         48.06836816	         -9.11666351	         -8.34762573	        -34.59270296	         16.16660872	        -10.74008693	         -1.22162858	        -12.06403128	        -11.39758195	         21.25858359	         49.55093652	        -15.94300744	         15.39816591	         81.98380214	        -69.85820250	        -24.09270862	         11.72349678	          0.43125052	
